Coordinates
version=1
nRows=6
nColumns=46
inDegrees=yes

Units are S.I. units (second, meters, Newtons, ...)
Angles are in degrees.

endheader
time	pelvis_tilt	pelvis_list	pelvis_rotation	pelvis_tx	pelvis_ty	pelvis_tz	bb_angle	bb_tx	bb_ty	bb_tz	hip_flexion_r	hip_adduction_r	hip_rotation_r	knee_angle_r	knee_angle_r_beta	ankle_angle_r	subtalar_angle_r	mtp_angle_r	crank_angle_r	hip_flexion_l	hip_adduction_l	hip_rotation_l	knee_angle_l	knee_angle_l_beta	ankle_angle_l	subtalar_angle_l	mtp_angle_l	crank_angle_l	lumbar_extension	lumbar_bending	lumbar_rotation	arm_flex_r	arm_add_r	arm_rot_r	elbow_flex_r	pro_sup_r	wrist_flex_r	wrist_dev_r	arm_flex_l	arm_add_l	arm_rot_l	elbow_flex_l	pro_sup_l	wrist_flex_l	wrist_dev_l
      0.00000000	    -20.52166929	     -5.57484797	     -0.94134931	      0.10136484	      1.12085248	     -0.24136056	      0.00000000	      0.50000000	      0.00000000	      0.25000000	     91.02622392	     -9.90830058	     -7.95567601	     91.07843290	      1.58961853	     26.06931903	      7.07355049	      0.00000000	      0.00000000	     60.63811528	    -17.63956721	     -6.14800936	     70.97313898	      1.23871496	     11.47284930	     10.24966370	      0.00000000	      0.00000000	    -49.08998901	      4.19419544	      5.48835890	     89.68173106	     -4.50729146	     27.17455851	     35.90187137	     22.20193422	      0.00000000	      0.00000000	     89.73022118	     -0.62234230	     27.42646330	     30.84459255	     19.99124842	      0.00000000	      0.00000000
      0.00500000	    -20.54520668	     -5.58982656	     -0.94168944	      0.10136518	      1.12081523	     -0.24134660	      0.00000000	      0.50000000	      0.00000000	      0.25000000	     91.05594039	     -9.89417689	     -7.94256129	     91.08607904	      1.58975198	     26.06445332	      7.11614802	      0.00000000	      0.00000000	     60.66880280	    -17.63814424	     -6.10831709	     70.97059109	      1.23867049	     11.46268037	     10.25126405	      0.00000000	      0.00000000	    -49.07861745	      4.19011917	      5.48682502	     89.68060333	     -4.34904540	     26.49845778	     35.41145286	     24.89083152	      0.00000000	      0.00000000	     89.73053593	     -0.33409840	     26.32145526	     30.27314990	     23.16102150	      0.00000000	      0.00000000
      0.01000000	    -20.52573232	     -5.56281331	     -0.97288133	      0.10141322	      1.12086250	     -0.24126775	      0.00000000	      0.50000000	      0.00000000	      0.25000000	     91.04548171	     -9.86268880	     -7.91707395	     91.09751816	      1.58995163	     26.08479987	      7.10768201	      0.00000000	      0.00000000	     60.61974904	    -17.66805422	     -6.18065806	     70.96221703	      1.23852433	     11.47584290	     10.24333075	      0.00000000	      0.00000000	    -49.08146263	      4.16455821	      5.46970996	     89.68028701	     -4.40717078	     27.00771212	     35.86839668	     22.16723099	      0.00000000	      0.00000000	     89.72997202	     -0.69649903	     27.65481708	     30.90553812	     19.56800001	      0.00000000	      0.00000000
      0.01500000	    -20.67868977	     -5.70752154	     -1.04737848	      0.10102865	      1.12032672	     -0.24075916	      0.00000000	      0.50000000	      0.00000000	      0.25000000	     91.24027284	     -9.67350355	     -8.00799602	     91.08540859	      1.58974028	     25.96906088	      6.90609183	      0.00000000	      0.00000000	     60.88670546	    -17.68231079	     -5.88282803	     70.99170426	      1.23903898	     11.48537608	     10.39081353	      0.00000000	      0.00000000	    -48.92524077	      4.13516782	      5.61895060	     89.67760696	     -4.46780042	     26.65630859	     35.66235605	     23.33205403	      0.00000000	      0.00000000	     89.73177353	     -0.42633567	     26.83282044	     30.67917646	     20.83962536	      0.00000000	      0.00000000
      0.02000000	    -20.54064465	     -5.70924337	     -1.06229296	      0.10120624	      1.12076665	     -0.24109056	      0.00000000	      0.50000000	      0.00000000	      0.25000000	     91.05706028	     -9.67088342	     -8.01554873	     91.10179394	      1.59002626	     26.14712733	      7.14404007	      0.00000000	      0.00000000	     60.72971234	    -17.91476351	     -6.11309591	     71.09892837	      1.24091039	     11.76882778	     10.39135322	      0.00000000	      0.00000000	    -49.14921031	      4.17771604	      5.79136784	     89.66494028	     -4.48366144	     25.86836261	     36.04757529	     24.71800088	      0.00000000	      0.00000000	     89.71976677	     -0.37838482	     25.99066721	     31.06845751	     22.36038262	      0.00000000	      0.00000000
      0.02500000	    -20.71915461	     -5.59262096	     -1.01824227	      0.10104317	      1.12051934	     -0.24110765	      0.00000000	      0.50000000	      0.00000000	      0.25000000	     91.30608980	     -9.71588270	     -7.86879655	     91.10865900	      1.59014608	     25.96871865	      6.81868962	      0.00000000	      0.00000000	     60.89289246	    -17.70212420	     -6.11461595	     71.02684474	      1.23965230	     11.53101372	      9.99197970	      0.00000000	      0.00000000	    -48.84857008	      4.09656103	      5.61758319	     89.67624016	     -4.20142704	     25.46392861	     34.51245386	     28.39281610	      0.00000000	      0.00000000	     89.72875610	     -0.07284425	     24.47731440	     29.91112998	     26.16365560	      0.00000000	      0.00000000
